#tb 0: 1001/24000
0,          0,          0,        1,  3824640, 0x9a253d29
0,         12,         12,        1,  3824640, 0xcb232b06
0,         15,         15,        1,  3824640, 0xb03c288c
0,         16,         16,        1,  3824640, 0x260b284e
0,         18,         18,        1,  3824640, 0x53ed2f30
0,         19,         19,        1,  3824640, 0x00af334d
0,         21,         21,        1,  3824640, 0x35ba3ef7
0,         22,         22,        1,  3824640, 0x05c24e9a
0,         24,         24,        1,  3824640, 0x03846423
0,         25,         25,        1,  3824640, 0x0bcf6423
0,         30,         30,        1,  3824640, 0x96446423
0,         33,         33,        1,  3824640, 0x9e8f6423
0,         34,         34,        1,  3824640, 0x22bc6423
0,         36,         36,        1,  3824640, 0x714a6423
0,         37,         37,        1,  3824640, 0x060d6423
0,         39,         39,        1,  3824640, 0x5bf96423
0,         40,         40,        1,  3824640, 0xb3476423
0,        123,        123,        1,  3824640, 0xbf056423
0,        124,        124,        1,  3824640, 0x30746423
0,        126,        126,        1,  3824640, 0xea6f6423
